<svg viewBox="-3.750332919034065 86.904 261.05013760653407 339.0959999999999" xmlns="http://www.w3.org/2000/svg" xmlns:xlink="http://www.w3.org/1999/xlink" xmlns:blush="http://design.blush" overflow="visible" width="261.05013760653407px" height="339.0959999999999px"><g id="Master/Pose/Sitting" stroke="none" stroke-width="1" fill="none" fill-rule="evenodd" blush:has-customizable-colors="true" blush:i="0"><g id="Head/Front" transform="translate(38.000000, 73.000000) scale(1 1)" blush:width="136" blush:height="104" blush:component="Head/Front" blush:i="0.0"><g id="Head/Front/Curly" stroke="none" stroke-width="1" fill="none" fill-rule="evenodd" blush:i="0.0.0"><g id="Head" transform="translate(54.000000, 31.000000)" fill="#915b3c" blush:color="Skin-500" blush:i="0.0.0.0"><path d="M38.1433414,9.13393292 C43.9381521,19.9350547 43.249578,47.3329958 35.7603014,49.2634576 C32.773664,50.0333035 26.4113241,48.1475566 19.935865,44.2446031 L24,73 L0,73 L8.26160177,34.4893378 C3.65406109,29.0807313 0.535660132,22.452516 1.05677633,15.0254539 C2.55833022,-6.37502057 32.3485306,-1.66718886 38.1433414,9.13393292 Z" id="SKIN" blush:i="0.0.0.0.0"/></g><path d="M102.7757,25.1604378 C102.27871,23.413499 100.941932,21.9177553 99.1403997,21.4740102 C98.7035309,21.3663739 98.2523568,21.3228991 97.8028308,21.3410245 C97.6415842,21.3474604 97.5963613,21.3939561 97.5210118,21.2811974 C97.4651095,21.197597 97.463857,20.9933574 97.44085,20.8951122 C97.3692581,20.5896064 97.2797352,20.2879096 97.169249,19.9940277 C96.7923038,18.9916772 96.1588538,18.1045809 95.3952068,17.3573001 C93.9668625,15.9592762 92.0369134,14.9944243 90.0318126,14.8198684 C88.9343996,14.7243814 87.8449632,14.9026807 86.8074738,15.2596732 C86.2703367,15.444474 85.7494825,15.6745884 85.2422083,15.9290015 C85.0894658,16.0055749 84.5939258,16.3806273 84.4406558,16.3563287 C84.2713667,16.3295345 83.9311403,15.9088402 83.793494,15.8032397 C82.0920984,14.4978789 79.9910802,13.9846529 77.8718674,14 C75.4798671,14.0180142 73.1765325,14.1375371 71.1815838,15.5957165 C70.7592838,15.9044402 70.3570902,16.2424535 69.974146,16.5983297 C69.7724889,16.7856917 69.5771603,16.9800806 69.3908631,17.1825471 C69.2784651,17.3046969 69.1690337,17.4296049 69.0636894,17.5578621 C68.8849074,17.7755645 68.9135837,17.8470813 68.6633416,17.6951821 C67.7032454,17.1118841 66.5906702,16.8390829 65.4700524,16.976797 C64.80463,17.0586242 64.1572045,17.2583982 63.5424765,17.5213485 C63.3331724,17.6108594 62.8487074,17.9679176 62.6256255,17.9713982 C62.4043234,17.9748132 61.9266485,17.6438267 61.6986882,17.5597009 C60.4674524,17.1051856 59.1403652,16.9931493 57.8462393,17.2031681 C56.5113072,17.4198854 55.1999755,17.9524847 54.068942,18.6884699 C53.524949,19.0425073 53.0503065,19.4347656 52.6690763,19.9611918 C52.5044676,20.1884823 52.3556804,20.4289072 52.1691195,20.6396484 C52.0598858,20.7630459 51.8435939,20.8896614 51.7849887,21.0458292 C51.8200595,20.9523124 50.3250675,20.3759756 50.1839932,20.3391337 C49.43241,20.1428403 48.6671149,20.1826375 47.9311554,20.4248355 C46.5472429,20.8802703 45.3570768,21.9016 44.3789178,22.9487388 C43.8765219,23.4865919 43.4368843,24.0811198 43.0636966,24.7145254 C42.8848487,25.0179297 42.7212948,25.3300027 42.5716506,25.6487085 C42.4991357,25.8031032 42.4510782,25.9962443 42.3555564,26.1353375 C42.232413,26.3145561 42.1496802,26.3179711 41.9266642,26.3961207 C40.7940485,26.7929104 39.7615692,27.4645372 38.9753108,28.3720574 C38.1800209,29.2902166 37.663979,30.42089 37.4476212,31.6115877 C37.4348981,31.6817253 37.427317,31.9723892 37.3862473,32.0103476 C37.3299494,32.0626224 37.1021869,32.0395059 37.0160261,32.0496194 C36.7176606,32.0846225 36.4214046,32.1367003 36.1291039,32.2059185 C35.5902528,32.3334534 35.0657729,32.5211438 34.5696396,32.7666254 C32.6356033,33.723531 31.2525478,35.5174909 30.5756549,37.5361144 C29.8654051,39.6545592 29.8779963,42.0815964 30.7268813,44.1605068 C30.8640002,44.4962873 31.0271586,44.8222171 31.2187955,45.1305467 C31.3364672,45.3198132 31.3744386,45.3202729 31.2980344,45.5188648 C31.2128624,45.7397851 31.0572852,45.9544667 30.9561599,46.1703303 C30.6262175,46.874793 30.3955544,47.6219424 30.2498656,48.3850501 C30.0108303,49.6368226 29.8923675,50.9522969 30.1281725,52.2135918 C30.2376699,52.799254 30.4284498,53.3717818 30.7194979,53.8934139 C30.8678896,54.1593852 31.0415297,54.411631 31.2375834,54.6449634 C31.3393678,54.7661281 31.4474808,54.881842 31.5605381,54.9926962 C31.6252081,55.0560039 31.7099845,55.111431 31.7649639,55.1821597 C31.8991823,55.3546142 31.9273971,55.2128285 31.8581785,55.4660594 C31.7614041,55.8200967 31.5420138,56.1694057 31.4076636,56.5139206 C31.2692262,56.868943 31.1441052,57.2288251 31.0296636,57.5922535 C30.7978799,58.3281731 30.6018921,59.077424 30.479342,59.8395467 C30.2439984,61.3027828 30.2853319,62.8618999 30.9774529,64.204825 C31.2733793,64.7792573 31.6979207,65.2831579 32.2128419,65.6751536 C32.4648638,65.8669157 32.7378492,66.0322119 33.0242168,66.1679557 C33.171356,66.2378307 33.3592353,66.2677771 33.4263445,66.4100881 C33.4985956,66.5631037 33.3913396,66.8669677 33.3668823,67.038043 C33.1540843,68.5263001 33.0473557,70.0888978 33.489762,71.5473398 C33.8972294,72.890659 34.7943696,74.0766939 35.9591555,74.8619331 C38.2187834,76.3851933 41.2646697,76.2992944 43.6389369,75.0798325 C44.257818,74.7619147 44.8368159,74.3672265 45.3533193,73.9016782 C46.6685404,75.6721932 49.3749915,75.6161751 51.2972276,75.1116834 C53.6920627,74.4832031 55.6137056,72.8179602 56.7208751,70.6300344 C58.2347869,72.4729856 61.411991,71.8750427 62.4618079,69.8757268 C62.718774,69.3864053 62.871187,68.8471075 62.9462069,68.3013738 C62.9856945,68.0143875 62.9605121,67.7249057 62.9901773,67.4402179 C63.0280168,67.0774462 63.2703482,66.7249193 63.4096426,66.3739686 C63.6809139,65.6909806 63.8493461,64.9854671 63.8565976,64.2487595 C63.8603552,63.8641191 63.8116384,63.4892637 63.7750514,63.1077099 C63.742156,62.7642457 63.8374141,62.4442264 63.8915365,62.105228 C63.277336,62.2063627 62.5290489,62.0407382 61.9503806,61.8626359 C61.3825236,61.6878829 60.8506603,61.2275884 60.4498511,60.8072225 C59.5192222,59.831075 58.950706,58.5514576 58.5618947,57.2778821 C57.7083952,54.4826224 58.0582462,51.1289544 60.8697779,49.5948583 C62.1795274,48.8802164 66.1033718,48.8825605 67.6633416,49.2357609 C69.3035816,49.6071356 71.1630595,53.2263842 71.25456,53.5665648 C71.3111875,53.7771089 71.282709,54.0376951 71.4761258,54.1779703 C71.9011945,54.4864314 72.6022151,53.9511395 72.9157428,53.6869414 C73.4567694,53.2309812 73.8426801,52.624304 74.1769075,52.0093522 C74.9051541,50.669645 75.4922605,49.2329403 75.9069794,47.7662893 C76.2267038,46.6355502 76.4311297,45.4695452 76.8490129,44.367636 C77.2648524,43.2711776 77.9203865,42.2911555 78.9396153,41.6700305 C80.048367,40.9943321 81.3192882,40.638456 82.5364825,40.2138213 C83.7429973,39.7929956 84.9286806,39.2786532 85.8639241,38.385712 C86.0695366,38.189353 86.269282,37.9807133 86.4348135,37.7495481 C86.5654721,37.5670459 86.6946144,37.2176712 86.8937005,37.1019573 C87.203207,36.9219506 87.6549084,37.39006 87.9225541,37.560019 C89.2429831,38.3986494 90.3446151,39.5682663 91.2331195,40.8459792 C92.1166797,42.1167309 92.841683,43.3394764 93.430833,44.7584496 C93.8678337,45.8108422 94.1405685,47.158627 94.9091597,48.0210964 C95.2522867,48.4061965 97.8028308,48.6391716 98.6289725,48.3029602 C99.4551141,47.9667489 100.380997,47.0937432 100.658267,46.5466304 C100.942129,45.9866459 101.009964,45.371497 100.888666,44.7584496 C100.817338,44.3977794 100.671649,44.0608825 100.591949,43.7066481 C100.52484,43.4090887 100.463927,43.1278158 100.319095,42.8552117 C100.044594,42.3386363 99.5756205,41.9673273 99.0100708,41.8120789 C99.5986275,41.2694318 100.086323,40.6202648 100.42378,39.8945901 C100.774422,39.1406764 101.071601,38.2238307 101.155916,37.3963645 C101.224476,36.7242781 101.11867,36.0279587 100.750756,35.4503742 C100.36478,34.844485 99.6810307,34.4492057 99.0894416,34.0712638 C99.9931082,33.3642399 100.766512,32.5043974 101.402335,31.5524173 C102.638845,29.7011258 103.403678,27.3675397 102.7757,25.1604378 Z" id="hair" fill="#ecdcbf" blush:color="Hair-500" blush:i="0.0.0.1"/></g></g><g id="Bottom/Sitting" transform="translate(-44.000000, 260.000000) scale(1 1)" blush:width="300" blush:height="239" blush:component="Bottom/Sitting" blush:i="0.1"><g id="Bottom/Sitting/Skinny Jeans 1" stroke="none" stroke-width="1" fill="none" fill-rule="evenodd" blush:i="0.1.0"><g id="Objects/Seat" transform="translate(10.000000, 42.000000) scale(1 1)" blush:width="232" blush:height="124" blush:component="Objects/Seat" blush:i="0.1.0.0"><g id="Objects/Seat/Cube" stroke="none" stroke-width="1" fill="none" fill-rule="evenodd" blush:i="0.1.0.0.0"><g id="Seat" transform="translate(55.000000, 0.000000)" blush:i="0.1.0.0.0.0"><polygon id="Seat-Stuff" fill="#C5CFD6" points="27.6226415 0 104.877193 0 115 124 0 124" blush:i="0.1.0.0.0.0.0"/><polygon id="Seat-Stuff" fill-opacity=".1" fill="#000" points="27.6226415 0 51.3828011 0 65.6037736 124 0 124" blush:i="0.1.0.0.0.0.1"/></g></g></g><path d="M257.954028,20.756908 L258.24189,20.5887017 C266.50855,15.9575335 280.00938,22.2466943 280.000005,29.2384154 C279.971611,50.4029106 260.656682,150.1511 259.648224,156.456711 C258.639766,162.762321 247.83665,164.42787 247.20755,156.477375 C246.206544,143.826795 244.3468,100.033121 246.20755,79.7626522 C246.975689,71.3947628 247.802939,63.4254961 248.617343,56.3158982 C238.483775,74.6174738 222.808496,100.823961 201.593128,134.933778 L190.076573,129.672175 C199.120166,99.8760987 206.535776,78.8408618 212.323403,66.5664641 C222.233227,45.5497154 231.525307,27.551672 235.436043,21.2120072 C241.587899,11.2392801 252.296386,14.7194928 257.954028,20.756908 Z" id="LegBack" fill="#915b3c" blush:color="Skin-500" blush:i="0.1.0.1"/><path d="M208.819223,123.340112 L213.936922,21.8299349 C217.625361,4.27739957 248.84365,12.4235349 248.830816,21.8299349 C248.801666,43.1853748 235.973522,116.956762 235.964839,123.319261 L208.819223,123.340112 Z" id="LegLower" fill="#c7d1d9" transform="translate(228.825019, 67.419630) rotate(20.000000) translate(-228.825019, -67.419630)" blush:color="Bottom-700" blush:i="0.1.0.2"/><path d="M182.995119,136.879166 C181.876365,139.865652 181.316987,142.100234 181.316987,143.582912 C181.316987,145.386198 181.617402,148.017641 182.21823,151.477241 C184.310168,151.477241 203.110773,151.477241 238.620042,151.477241 C240.085725,146.631749 239.239648,144.015823 236.08181,143.629464 C232.923972,143.243106 230.300703,142.894255 228.212002,142.582912 L201.99698,130.896125 C201.492551,130.671248 200.901331,130.89787 200.676454,131.402299 C200.672607,131.410928 200.668883,131.419612 200.665282,131.428346 L198.9802,135.515936 L198.9802,135.515936 C196.056869,136.879893 193.681358,137.561872 191.853668,137.561872 C190.368714,137.561872 188.31798,136.962147 185.701465,135.762696 L185.701471,135.762684 C184.69737,135.302389 183.510243,135.743231 183.049947,136.747331 C183.030108,136.790609 183.01182,136.834582 182.995119,136.879166 Z" id="shoe" fill="#E4E4E4" transform="translate(210.316987, 140.977241) rotate(30.000000) translate(-210.316987, -140.977241)" blush:i="0.1.0.3"/><path d="M244.678132,151.401924 C243.559377,154.388411 243,156.622993 243,158.105671 C243,159.908957 243.300414,162.5404 243.901243,166 C245.993181,166 264.793785,166 300.303055,166 C301.768738,161.154507 300.922661,158.538582 297.764823,158.152223 C294.606985,157.765865 291.983716,157.417014 289.895014,157.105671 L263.679993,145.418883 C263.175563,145.194006 262.584344,145.420628 262.359467,145.925057 C262.35562,145.933687 262.351895,145.94237 262.348295,145.951105 L260.663213,150.038695 L260.663213,150.038695 C257.739881,151.402652 255.364371,152.084631 253.536681,152.084631 C252.051727,152.084631 250.000992,151.484905 247.384478,150.285455 L247.384483,150.285443 C246.380383,149.825148 245.193255,150.265989 244.73296,151.27009 C244.713121,151.313368 244.694833,151.357341 244.678132,151.401924 Z" id="shoe" fill="#E4E4E4" blush:i="0.1.0.4"/><path d="M282.770373,36.4330278 C282.770373,63 270.1536,124.970293 270.145616,130.820112 L243,130.840963 C246.973277,75.5454811 248.382172,47.5998928 247.226683,47.0041979 C245.49345,46.1106556 176.175838,53.9250306 155.386358,53.9250306 C125.407825,53.9250306 113.006307,35.0203971 112,-4.40536496e-13 L171.386358,-4.40536496e-13 C183.477954,1.29386693 246.548825,14.0152568 269.972097,18.3884129 C280,20.2606358 282.770373,29.1145109 282.770373,36.4330278 Z" id="Leg-and-Butt" fill="#f2f2f2" blush:color="Bottom-500" blush:i="0.1.0.5"/></g></g><g id="Body" transform="translate(-22.000000, 155.000000) scale(1 1)" blush:width="256" blush:height="187" blush:component="Body" blush:i="0.2"><g id="Body/Long Sleeve" stroke="none" stroke-width="1" fill="none" fill-rule="evenodd" blush:i="0.2.0"><path d="M67.9697919,74.4496834 L89.8671837,74.5318631 C65.8560993,128.56567 53.3363474,156.856914 52.3079281,159.405597 C49.9939846,165.140133 54.8906002,173.873732 56.9845874,178.567103 C50.1645409,181.61887 50.8912241,170.316929 42.2879189,174.319492 C34.4352209,177.972846 28.4616931,184.59248 19.3890352,178.994371 C18.2736052,178.306117 17.0512757,175.714714 20.0045784,173.68967 C27.3623323,168.644547 37.9653015,159.814672 39.3979297,156.908251 C41.3515741,152.944826 50.8755281,125.458637 67.9697919,74.4496834 L67.9697919,74.4496834 Z M253.693154,55.3151968 C249.269111,59.00334 244.780296,63.0831966 245.568527,65.0514942 C246.356757,67.0197919 250.471061,66.2874533 251.152638,69.3148625 C251.607023,71.3331352 244.929759,71.6610844 231.120845,70.2987101 L199.083874,83 L192,65.3107899 L231.482876,59.9251648 C239.381053,55.5320264 246.646993,52.5579486 253.280695,51.0029313 C255.147488,50.9484265 258.117196,51.6270536 253.693154,55.3151968 Z" id="SKIN" fill="#784931" blush:color="Skin-700" blush:i="0.2.0.0"/><path d="M123.473568,9.66927317 L140.652814,9.31280705 C148.188654,47.0006412 173.203746,69.0336905 223.790464,56.4079457 L234.893349,104.819132 C187.489073,115.210412 143.760505,99.6935282 130.595778,48.4746485 C127.187846,35.2156986 124.201379,21.3681777 123.473568,9.66927317 Z" id="Clothes-Back" fill="#002c4a" transform="translate(179.183459, 58.591470) rotate(5.000000) translate(-179.183459, -58.591470)" blush:color="Top-700" blush:i="0.2.0.1"/><path d="M119.477154,0 L119.490636,0.016 L145.467604,5.96527657 C145.467604,50.1976331 159.4168,78.578721 166.778942,111.015796 L167,112 L96.8436466,112.000086 C95.8553764,123.350958 95.2484879,135.017596 94.9322404,147 L94.9322404,147 L42.4016357,147 C54.3053653,83.6639633 79.4301113,34.6639633 117.775873,0 L117.775873,0 L119.477154,0 Z" id="Clothes" fill="#355c7d" blush:color="Top-500" blush:i="0.2.0.2"/><path d="M107.912412,48.2598889 C106.10448,76.1008541 107.167824,97.3475578 111.102445,112 L111.102445,112 L96.8437337,111.999086 C98.758489,90.0075171 102.104834,69.2012293 107.54268,49.5802231 Z" id="Shade" fill-opacity=".1" fill="#000" blush:i="0.2.0.3"/></g></g></g></svg>