<svg viewBox="8.907289356984421 100.11000000000001 269.4013303769401 332.27999999999986" xmlns="http://www.w3.org/2000/svg" xmlns:xlink="http://www.w3.org/1999/xlink" xmlns:blush="http://design.blush" overflow="visible" width="269.4013303769401px" height="332.27999999999986px"><g id="Master/Pose/Sitting" stroke="none" stroke-width="1" fill="none" fill-rule="evenodd" blush:has-customizable-colors="true" blush:i="0"><g id="Head/Front" transform="translate(38.000000, 73.000000) scale(1 1)" blush:width="136" blush:height="104" blush:component="Head/Front" blush:i="0.0"><g id="Head/Front/Long" stroke="none" stroke-width="1" fill="none" fill-rule="evenodd" blush:i="0.0.0"><path d="M74.5,27 C85.2821207,27 94.2105014,34.9368049 95.7615049,45.2867779 C99.2080531,57.9860871 103.701616,86.5432912 99.1172687,91.0224659 L70.1172687,91.0224659 L70.1089864,90.8685463 C59.3601277,89.6792412 51,80.5659268 51,69.5 L51,48.5 C51,36.6258779 60.6258779,27 72.5,27 L74.5,27 Z" id="Hair-Back" fill="#4a312c" blush:color="Hair-500" blush:i="0.0.0.0"/><g id="Head" transform="translate(54.000000, 31.000000)" fill="#eac7a8" blush:color="Skin-500" blush:i="0.0.0.1"><path d="M38.1433414,9.13393292 C43.9381521,19.9350547 43.249578,47.3329958 35.7603014,49.2634576 C32.773664,50.0333035 26.4113241,48.1475566 19.935865,44.2446031 L24,73 L0,73 L8.26160177,34.4893378 C3.65406109,29.0807313 0.535660132,22.452516 1.05677633,15.0254539 C2.55833022,-6.37502057 32.3485306,-1.66718886 38.1433414,9.13393292 Z" id="SKIN" blush:i="0.0.0.1.0"/></g><path d="M73.0014183,28 C84.581449,28 88.2365853,33.3883223 91.3486809,37.9630857 C89.0214598,45.9483908 79.9899431,47.1322506 71.9650913,52.1099145 C71.0199697,51.3410485 69.8137784,50.8804131 68.5,50.8804131 C65.4624339,50.8804131 63,53.3428469 63,56.3804131 C63,59.4179792 65.4624339,61.8804131 68.5,61.8804131 C68.5838976,61.8804131 68.6673564,61.8785346 68.7503367,61.8748173 C69.8557449,73.7527524 69.4127451,87.3172545 66.1172687,90.5371269 L37.1172687,90.5371269 C35.5014749,62.4634848 51.1172687,73.3348557 51.1172687,46.9027926 C52.0907327,45.9516616 53.010584,45.010258 53.9207807,44.19836 L53.888877,43.4207004 C58.9105508,33.1402335 65.2813979,28 73.0014183,28 Z" id="Hair-Front" fill="#4a312c" blush:color="Hair-500" blush:i="0.0.0.2"/></g></g><g id="Bottom/Sitting" transform="translate(-44.000000, 260.000000) scale(1 1)" blush:width="300" blush:height="239" blush:component="Bottom/Sitting" blush:i="0.1"><g id="Bottom/Sitting/Sweat Pants" stroke="none" stroke-width="1" fill="none" fill-rule="evenodd" blush:i="0.1.0"><g id="Objects/Seat" transform="translate(10.000000, 42.000000) scale(1 1)" blush:width="232" blush:height="124" blush:component="Objects/Seat" blush:i="0.1.0.0"><g id="Objects/Seat/Cube 2" stroke="none" stroke-width="1" fill="none" fill-rule="evenodd" blush:i="0.1.0.0.0"><path d="M174,0 C182.836556,-1.623249e-15 190,7.163444 190,16 L190,108 C190,116.836556 182.836556,124 174,124 L59,124 C50.163444,124 43,116.836556 43,108 L43,16 C43,7.163444 50.163444,1.623249e-15 59,0 L174,0 Z M158,28 L75,28 C72.790861,28 71,29.790861 71,32 L71,32 L71,92 C71,94.209139 72.790861,96 75,96 L75,96 L158,96 C160.209139,96 162,94.209139 162,92 L162,92 L162,32 C162,29.790861 160.209139,28 158,28 L158,28 Z" id="Seat" fill="#C5CFD6" blush:i="0.1.0.0.0.0"/></g></g><path d="M259.090229,37.5018287 C264.168086,50.6507477 273.032873,93.8526085 283.684593,159.107411 L271.509253,162.659849 C258.696468,134.301545 249.430392,109.608281 245.711023,96.5800564 C239.34256,74.2725728 234.497817,54.6432898 233.273327,47.3127766 C230.353374,29.8322277 255.735275,28.8143004 259.090229,37.5018287 Z M220.678573,74.1595557 C183.611563,79.4942994 131.062816,85.0032894 126.565792,85.6215241 C120.26302,86.4880065 115.500245,76.5838567 122.888346,73.6635414 C134.644063,69.0168268 175.811956,54.4748802 195.66723,50.3612296 C201.37284,49.1791314 206.902884,48.0808288 212.102095,47.0882686 C227.555991,44.1380286 235.56256,72.0174283 220.678573,74.1595557 Z" id="SKIN" fill="#eac7a8" blush:color="Skin-500" blush:i="0.1.0.1"/><path d="M165.562186,0 C227.079876,15.6757222 258.515366,25.7216696 259.868655,30.1378423 C259.883714,30.1869846 259.897479,30.2361936 259.909948,30.2854692 C259.94163,30.3238462 259.971064,30.3634124 260,30.4032083 C272.191506,47.1700257 279.49295,129.026966 281.889416,135.156136 L258.52773,138.641377 C249.591265,105.503295 221,82.4181007 221.759487,42.7290106 C221.55445,41.5650096 221.502612,40.4611405 221.58707,39.4168872 L158,7.04671741 L158,0 L165.562186,0 Z" id="Leg-Back" fill="#c7d1d9" blush:color="Bottom-700" blush:i="0.1.0.2"/><path d="M168.941763,-4.97379915e-14 C177.854593,2.56031807 224.174037,21.9848377 248.206622,32.316337 C264.112045,39.1540062 259.098892,63.8027037 250.091931,70.2187883 C250.042683,70.6119747 249.880506,70.8801196 249.591265,71 C201.136867,91.0826527 162.804991,80.5453361 150,83.9121674 L144.07712,65.2284164 L163.282146,58.6402703 C157.464468,57.475702 152.107008,56.4363434 147.522705,55.6322592 C117.90929,50.4380832 109.273766,34.5862504 114.379549,-4.97379915e-14 L168.941763,-4.97379915e-14 Z" id="Leg-Front" fill="#f2f2f2" blush:color="Bottom-500" blush:i="0.1.0.3"/><g id="Left" transform="translate(135.201565, 97.046949) rotate(64.000000) translate(-135.201565, -97.046949) translate(106.201565, 86.546949)" fill="#E4E4E4" blush:i="0.1.0.4"><path d="M1.67813181,6.40192425 C0.559377268,9.38841089 0,11.6229931 0,13.1056708 C0,14.908957 0.300414205,17.5404001 0.901242614,21 C2.99318117,21 21.7937852,21 57.3030548,21 C58.768738,16.1545073 57.9226607,13.5385816 54.7648228,13.1522232 C51.606985,12.7658647 48.9837155,12.4170139 46.8950143,12.1056708 L20.6799926,0.41888346 C20.1755635,0.194006431 19.584344,0.4206282 19.359467,0.925057349 C19.35562,0.933686736 19.3518954,0.94237021 19.3482945,0.951105154 L17.6632131,5.03869504 L17.6632131,5.03869504 C14.7398812,6.40265216 12.3643706,7.08463071 10.5366811,7.08463071 C9.05172687,7.08463071 7.00099246,6.48490544 4.38447792,5.28545491 L4.38448339,5.28544297 C3.38038273,4.82514778 2.19325534,5.26598921 1.73296014,6.27008987 C1.71312074,6.31336808 1.69483298,6.35734088 1.67813181,6.40192425 Z" id="shoe" blush:i="0.1.0.4.0"/></g><g id="Right" transform="translate(264.000000, 151.000000)" fill="#E4E4E4" blush:i="0.1.0.5"><path d="M1.67813181,6.40192425 C0.559377268,9.38841089 0,11.6229931 0,13.1056708 C0,14.908957 0.300414205,17.5404001 0.901242614,21 C2.99318117,21 21.7937852,21 57.3030548,21 C58.768738,16.1545073 57.9226607,13.5385816 54.7648228,13.1522232 C51.606985,12.7658647 48.9837155,12.4170139 46.8950143,12.1056708 L20.6799926,0.41888346 C20.1755635,0.194006431 19.584344,0.4206282 19.359467,0.925057349 C19.35562,0.933686736 19.3518954,0.94237021 19.3482945,0.951105155 L17.6632131,5.03869504 L17.6632131,5.03869504 C14.7398812,6.40265216 12.3643706,7.08463071 10.5366811,7.08463071 C9.05172687,7.08463071 7.00099246,6.48490544 4.38447792,5.28545491 L4.38448339,5.28544297 C3.38038273,4.82514778 2.19325534,5.26598921 1.73296014,6.27008987 C1.71312074,6.31336808 1.69483298,6.35734088 1.67813181,6.40192425 Z" id="shoe" blush:i="0.1.0.5.0"/></g></g></g><g id="Body" transform="translate(-22.000000, 155.000000) scale(1 1)" blush:width="256" blush:height="187" blush:component="Body" blush:i="0.2"><defs blush:i="0.2.0"><path d="M8.50486985,11.3641526 C20.5328809,13.1391664 36.9471722,13.1391664 55.7504485,5 L60.0903301,21.0261575 C46.4526921,30.855406 28.3595972,37.8403661 13.9345776,35.1385465 C2.56686704,33.0093637 -1.08139191,18.2733952 8.50486985,11.3641526 Z" id="bodypointing-forward-path-1" blush:i="0.2.0.0"/><path d="M65.5437498,1.98951966e-13 C67.0746794,19.6687489 74.7801887,41.3453869 81.1040065,62.7603513 C94.0105334,65.9801967 115.654578,62.1842978 146.035933,51.3734208 C153.571674,66.9635189 157.055257,78.0780631 156.486685,84.7170535 C130.420927,98.3327976 108.0808,104.402393 89.6761367,104.801687 C90.2685109,115.717837 88.9396772,126.110233 84.4739328,135.605966 C75.2946804,155.124265 21.5450578,137.048144 3.47278757,140.605966 C-7.84459943,103.85132 14.0379108,88.9143806 14.0555178,65.3966157 C14.0747993,39.6421572 34.7544101,1.98951966e-13 37.7970006,1.98951966e-13 L37.7970006,1.98951966e-13 Z" id="bodypointing-forward-path-3" blush:i="0.2.0.1"/></defs><g id="Body/Pointing Forward" stroke="none" stroke-width="1" fill="none" fill-rule="evenodd" blush:i="0.2.1"><path d="M238.556381,46.4077826 C242.889175,45.5157805 253.464286,37.6506887 255.286431,39.2475996 C257.982176,41.6101262 255.578484,48.864452 252.746364,52.4730906 C247.453134,59.2176317 243.070569,61.5240612 232.238377,64.5443446 C226.574749,66.1235046 220.451364,69.288795 213.868224,74.0402157 L213,58.7398397 L228.246523,50.3642065 C230.385826,42.2239107 232.943102,38.1282526 235.918351,38.0772323 C238.203961,37.0137608 234.223587,47.2997848 238.556381,46.4077826 Z M212.314801,11.541507 C209.515281,16.510379 206.794075,21.8627914 208.22032,23.3935933 C209.646565,24.9243953 213.203036,22.7859324 214.904525,25.3293729 C216.038851,27.0249998 209.962902,29.703613 196.676679,33.3652124 L171.455792,56.4576422 L158.638039,42.7002327 L193.347821,23.6898218 C199.119845,16.8355222 204.806897,11.5121983 210.408976,7.71984988 C212.120791,7.00519513 215.114322,6.57263502 212.314801,11.541507 Z" id="SKIN" fill="#dcae92" blush:color="Skin-700" blush:i="0.2.1.0"/><g id="Group-3" transform="translate(134.353117, 23.386150)" blush:i="0.2.1.1"><mask id="bodypointing-forward-mask-2" fill="#fff" blush:i="0.2.1.1.0"><use xlink:href="#bodypointing-forward-path-1" blush:i="0.2.1.1.0.0"/></mask><use id="Mask" fill="#bf3b4f" transform="translate(31.545165, 20.361910) rotate(-9.000000) translate(-31.545165, -20.361910)" xlink:href="#bodypointing-forward-path-1" blush:color="Top-700" blush:i="0.2.1.1.1"/></g><g id="Group-27" transform="translate(77.000000, -0.000000)" blush:i="0.2.1.2"><mask id="bodypointing-forward-mask-4" fill="#fff" blush:i="0.2.1.2.0"><use xlink:href="#bodypointing-forward-path-3" blush:i="0.2.1.2.0.0"/></mask><use id="Mask" fill="#ff7582" xlink:href="#bodypointing-forward-path-3" blush:color="Top-500" blush:i="0.2.1.2.1"/></g></g></g></g></svg>