<svg viewBox="43.864480689764804 27.689999999999998 227.18581134774314 398.3099999999998" xmlns="http://www.w3.org/2000/svg" xmlns:xlink="http://www.w3.org/1999/xlink" xmlns:blush="http://design.blush" overflow="visible" width="227.18581134774314px" height="398.3099999999998px"><g id="Master/Pose/Standing" stroke="none" stroke-width="1" fill="none" fill-rule="evenodd" blush:has-customizable-colors="true" blush:i="0"><g id="Head/Front" transform="translate(82.000000, 0.000000) scale(1 1)" blush:width="136" blush:height="104" blush:component="Head/Front" blush:i="0.0"><g id="Head/Front/Caesar" stroke="none" stroke-width="1" fill="none" fill-rule="evenodd" blush:i="0.0.0"><g id="Head" transform="translate(54.000000, 31.000000)" fill="#b28b67" blush:color="Skin-500" blush:i="0.0.0.0"><path d="M38.1433414,9.13393292 C43.9381521,19.9350547 43.249578,47.3329958 35.7603014,49.2634576 C32.773664,50.0333035 26.4113241,48.1475566 19.935865,44.2446031 L24,73 L0,73 L8.26160177,34.4893378 C3.65406109,29.0807313 0.535660132,22.452516 1.05677633,15.0254539 C2.55833022,-6.37502057 32.3485306,-1.66718886 38.1433414,9.13393292 Z" id="SKIN" blush:i="0.0.0.0.0"/></g><path d="M74,29 C86.8690713,29 91.7485692,34.3062174 92,39 C86.4853531,40.5156046 76.8492499,41.0992165 63,41 L63,42 L75,43 L77,49 C73.818039,48.7624584 71.5442321,50.9450202 69.7297608,53.8671184 C68.9456796,53.3278818 68.0076493,53 67,53 C64.2385763,53 62,55.4624339 62,58 C62,60.6396292 63.2463746,62.6806558 65.0263305,63.5467302 C64.0760809,65.4058117 63.1200109,66.7549645 62,67 C57.6781395,66.5628085 52,55.8205201 52,47 C52,37.3455086 59.6819829,29 74,29 Z" id="Combined-Shape" fill="#d6b370" blush:color="Hair-500" blush:i="0.0.0.1"/></g></g><g id="Bottom/Standing" transform="translate(0.000000, 187.000000) scale(1 1)" blush:width="300" blush:height="239" blush:component="Bottom/Standing" blush:i="0.1"><g id="Bottom/Standing/Sweatpants" stroke="none" stroke-width="1" fill="none" fill-rule="evenodd" blush:i="0.1.0"><polygon id="SKIN" fill="#b28b67" points="128 9.9475983e-14 164.630838 126.226909 181.860154 221 199.153197 221 181.890974 9.9475983e-14" blush:color="Skin-500" blush:i="0.1.0.0"/><polygon id="Shadow" fill-opacity=".1" fill="#000" points="128 9.9475983e-14 164.630838 126.226909 181.860154 221 199.153197 221 181.890974 9.9475983e-14" blush:i="0.1.0.1"/><path d="M111.537727,0 C114.093705,65.5742244 113.085665,101.340188 112.513606,107.297892 C111.941548,113.255595 108.69393,153.156298 86.5636874,223 L104.549973,223 C133.85784,155.996902 144.088936,116.096199 147.450326,107.297892 C150.811717,98.4995844 160.739403,62.7336205 175.233385,0 L111.537727,0 Z" id="SKIN" fill="#b28b67" blush:color="Skin-500" blush:i="0.1.0.2"/><path d="M127.213639,1.13686838e-13 C136.741891,43.4350253 153.221683,112.768359 176.653017,208 L201.946059,208 C203.814239,110.253828 195.86709,45.9204947 182.104613,1.13686838e-13 L127.213639,1.13686838e-13 Z" id="Pant" fill="#c7d1d9" blush:color="Bottom-700" blush:i="0.1.0.3"/><path d="M111.409919,0 C113.913164,65.5742244 107.425844,130.177256 87.3305078,209.020958 L114.316793,209.020958 C143.678541,143.017859 164.723052,78.7336205 179.105577,0 L111.409919,0 Z" id="Pant" fill="#f2f2f2" blush:color="Bottom-500" blush:i="0.1.0.4"/><g id="Left" transform="translate(84.000000, 218.000000)" fill="#191847" blush:i="0.1.0.5"><path d="M0,18 L0.99242267,2 C6.8029179,3.69942511 14.0806841,3.03275844 22.8257214,0 C32.2287535,6.660617 44.0659431,11.2086712 58.3372903,13.6441626 C59.4261013,13.829999 60.1581292,14.8632891 59.9723163,15.9521041 C59.9602834,16.0226139 59.9444765,16.0924273 59.9249637,16.1612435 L58.5529375,21 L58.5529375,21 L22.8257214,21 L1.98484534,21 L0,18 Z" id="Shoe" blush:i="0.1.0.5.0"/></g><g id="Right" transform="translate(178.000000, 218.000000)" fill="#191847" blush:i="0.1.0.6"><path d="M0,18 L0.99242267,2 C6.8029179,3.69942511 14.0806841,3.03275844 22.8257214,0 C32.2287535,6.660617 44.0659431,11.2086712 58.3372903,13.6441626 C59.4261013,13.829999 60.1581292,14.8632891 59.9723163,15.9521041 C59.9602834,16.0226139 59.9444765,16.0924273 59.9249637,16.1612435 L58.5529375,21 L58.5529375,21 L22.8257214,21 L1.98484534,21 L0,18 Z" id="Shoe" blush:i="0.1.0.6.0"/></g></g></g><g id="Body" transform="translate(22.000000, 82.000000) scale(1 1)" blush:width="256" blush:height="187" blush:component="Body" blush:i="0.2"><g id="Body/Turtle Neck" stroke="none" stroke-width="1" fill="none" fill-rule="evenodd" blush:i="0.2.0"><path d="M60.9697919,67.4496834 L82.8671837,67.5318631 C66.1894326,121.56567 57.3363474,149.856914 56.3079281,152.405597 C53.9939846,158.140133 58.8906002,166.873732 60.9845874,171.567103 C54.1645409,174.61887 54.8912241,163.316929 46.2879189,167.319492 C38.4352209,170.972846 32.4616931,177.59248 23.3890352,171.994371 C22.2736052,171.306117 21.0512757,168.714714 24.0045784,166.68967 C31.3623323,161.644547 41.9653015,152.814672 43.3979297,149.908251 C45.3515741,145.944826 51.2088615,118.458637 60.9697919,67.4496834 L60.9697919,67.4496834 Z M199.493124,92.4603344 L227.821028,120.095357 C236.063404,123.611168 242.816857,127.493333 248.081387,131.741853 C249.265301,133.169925 250.554184,135.906184 244.983927,134.681747 C239.413671,133.45731 233.49953,132.419902 232.45261,134.23139 C231.405691,136.042878 234.490525,138.818722 232.555688,141.189494 C231.265796,142.770009 226.92779,137.742701 219.54167,126.10757 L190.084396,108.74029 L199.493124,92.4603344 Z" id="SKIN" fill="#b28b67" blush:color="Skin-500" blush:i="0.2.0.0"/><path d="M122.768272,9.7139848 L131.253224,7.48281413 C149.019938,54.2642227 221.602897,80.8616426 227.451896,98.4190631 C229.596879,104.857833 225.154909,108.596168 227.774893,110.385298 L217.29519,119.561394 C215.205566,117.515062 211.513381,121.915723 202.815928,119.824345 C194.118475,117.732967 127.737533,66.5128914 122.768272,9.7139848 Z" id="Clothes-Back" fill="#3f2a47" transform="translate(175.413267, 63.943241) rotate(5.000000) translate(-175.413267, -63.943241)" blush:color="Top-700" blush:i="0.2.0.1"/><path d="M112.315629,-4.72097411 L139.249859,-2.83754931 C141.453616,-2.68344757 143.115191,-0.772024866 142.961089,1.43173278 L142.241614,11.6763485 C141.22167,75.4733311 178.098291,91.7368983 169.887262,117.318245 C163.108761,138.436573 98.2273311,161.138686 87,140.43774 C82.4547451,132.057203 80.3928582,121.921313 80.1593383,110.901428 C77.2906083,119.368441 75.0207635,126.656945 73.3511268,132.767479 C70.4711839,143.30749 59.3062598,144.982871 59.3062598,149.043262 L59.3062598,149.043262 L44.5966299,144.982871 C45.5943495,139.466662 38.6598745,136.780597 40.5191881,124.456905 C48.8498993,69.2402236 71.2328417,29.2151944 107.668015,4.38181722 L108.046347,-1.0097438 C108.200449,-3.21350145 110.111872,-4.87507585 112.315629,-4.72097411 Z" id="Clothes-Front" fill="#725a7a" blush:color="Top-500" blush:i="0.2.0.2"/></g></g></g></svg>