<svg viewBox="0.2199252206426081 2.656874999999957 396.0474544585018 528.7181249999996" xmlns="http://www.w3.org/2000/svg" xmlns:xlink="http://www.w3.org/1999/xlink" xmlns:blush="http://design.blush" overflow="visible" width="396.0474544585018px" height="528.7181249999996px"><defs><rect id="mastercompositionplants-path-1" x="0" y="0" width="140" height="266"/><rect id="mastercompositionplants-path-7" x="0" y="0" width="127" height="170"/><path d="M9.37054227,12.5613422 C22.6202052,14.5162713 40.7027109,14.5090862 61.4205614,5.51255998 L66.1944979,23.208767 C51.1665391,34.0694341 31.2315522,41.7910291 15.3416741,38.8136531 C2.81957441,36.4673167 -1.19301326,20.1955965 9.37054227,12.5613422 Z" id="mastercompositionplants-path-3"/><path d="M72.2005369,2.23547676e-13 C73.8869588,21.7221726 82.3751241,45.661868 89.3412215,69.3125591 C103.558254,72.8682786 127.400589,68.6761214 160.867708,56.7365802 C169.168797,73.9542159 173.006182,86.2290697 172.379864,93.5611415 C143.667126,108.59814 119.058312,115.301393 98.7845564,115.742507 C99.4363321,127.798854 97.9724881,139.275853 93.0533166,149.762633 C82.9417964,171.318557 23.7332277,151.355368 3.82549256,155.284611 C-8.64131656,114.692942 15.4636361,98.1966511 15.4830313,72.223735 C15.5042711,43.7806241 38.2841549,2.23547676e-13 41.6357585,2.23547676e-13 L41.6357585,2.23547676e-13 Z" id="mastercompositionplants-path-5"/></defs><g id="Master/Composition/Plants" stroke="none" stroke-width="1" fill="none" fill-rule="evenodd" blush:has-customizable-colors="true" blush:i="0"><g id="Succulents-2" opacity=".699" transform="translate(262.000000, 250.000000)" blush:i="0.0"><mask id="mastercompositionplants-mask-2" fill="#fff" blush:i="0.0.0"><use xlink:href="#mastercompositionplants-path-1" blush:i="0.0.0.0"/></mask><g id="Mask" blush:i="0.0.1"/><g mask="url(#mastercompositionplants-mask-2)" id="Succulents" blush:i="0.0.2"><g transform="translate(8.000000, 0.000000)" blush:i="0.0.2.0"><g blush:i="0.0.2.0.0"><path d="M4.97194725,0.305774665 C17.9616544,31.1334242 40.042942,52.5526592 51.738081,84.6071723 C58.6731864,103.61644 61.5640471,124.2849 61.7393888,145.453174 C61.8346502,156.951 61.6342597,168.456207 61.5803668,179.954033 C61.527992,191.166628 61.2228519,202.307519 60.2698585,213.44841 C59.3123106,224.648352 58.2401456,235.714904 57.7672543,246.983912 C57.3991127,255.764396 57.230982,265.977363 54.2509323,273.98651 C51.8811628,280.355972 45.8580619,281.289169 44.2598717,273.564199 C43.3717774,269.269913 43.4837381,264.475285 43.5816561,260.061845 C43.7072797,254.399398 44.0370891,248.745386 44.2052198,243.083994 C44.8811582,220.365664 44.0048293,197.643118 44.4629189,174.915826 C44.9103818,152.710491 47.7682236,130.529409 44.6060008,108.472226 C41.9948518,90.2574934 35.3610912,74.616169 27.7375229,59.6212282 C20.4027751,45.1946411 12.4197943,31.1186618 7.46316555,14.7086364 C6.03993755,9.99572987 4.93968741,5.11200088 4.41176471,0.0442687194 C4.64251741,-0.0627589158 4.82924492,0.0242339896 4.97194725,0.305774665 Z" id="Thi-Succs!" fill="#1C9126" blush:i="0.0.2.0.0.0"/><path d="M1.43174765,61.1249036 C4.00391824,62.9799881 5.44119388,65.6936291 7.1797446,68.3711203 C9.34173883,71.6999095 11.8835055,74.7051584 14.044947,78.0363575 C18.5519117,84.9813263 22.511606,92.3528621 26.6200032,99.5791964 C34.4199875,113.295615 40.3421159,127.914573 43.2752638,143.783106 C46.3156546,160.228228 47.1354545,177.202342 48.4107602,193.89268 C49.7634577,211.582558 51.1255528,229.401371 51.3046594,247.159331 C51.3848152,255.115288 51.8154451,263.561073 50.859104,271.460998 C50.2637402,276.379171 48.0414909,280.570734 43.0314797,280.53125 C32.3895592,280.44662 27.393368,268.674455 25.3060016,259.01946 C22.2335485,244.80297 21.6204951,229.702016 22.1069577,215.16319 C22.6945823,197.632371 25.7410538,180.364842 27.0594778,162.901502 C28.4558464,144.414522 27.6670032,126.254094 21.3031889,108.847389 C18.0881139,100.050951 14.3567252,91.4653858 11.0062146,82.7273896 C9.57944211,79.0069782 8.41082646,75.1853475 6.48377151,71.7209968 C4.34001962,67.8674338 1.6788485,64.3693434 -4.48170912e-14,60.21875 C0.477064951,60.5212029 0.954682701,60.8230533 1.43174765,61.1249036 Z" id="Thi-Succs!" fill="#28AA4D" blush:i="0.0.2.0.0.1"/><path d="M124.020798,24.3665657 C124.347078,24.0779172 124.67376,23.7893297 125,23.5 C124.060205,28.0074349 122.362587,31.6688086 121.064932,35.7891461 C119.898469,39.4933464 119.307226,43.6851383 118.521567,47.7340185 C116.676679,57.2435324 114.544745,66.5386987 112.802213,76.129225 C109.352787,95.1071115 110.005189,115.552062 112.267477,136.607236 C114.404045,156.496497 117.783056,176.354979 119.393155,196.239926 C120.727824,212.731002 121.301484,229.736338 120.028372,245.470441 C119.163213,256.156026 116.327286,268.914417 108.600202,267.835986 C104.962444,267.328344 103.064805,262.344301 102.300278,256.718206 C101.072223,247.681164 100.815148,238.179959 100.336464,229.193892 C99.2681688,209.136712 99.0553658,189.141217 98.8444356,169.290457 C98.6447264,150.561228 98.0948802,131.460925 99.1942901,113.203622 C100.254686,95.5863737 103.571307,79.7115636 108.31335,65.0642788 C110.810962,57.3474257 113.190723,49.4500078 115.996936,42.0952248 C117.342697,38.5674167 118.986814,35.4500735 120.33314,31.9250511 C121.415732,29.0896727 122.276968,26.1801934 124.020798,24.3665657 Z" id="Thi-Succs!" fill="#43D26C" blush:i="0.0.2.0.0.2"/><path d="M4.71883488,112.068302 C6.12606116,109.708759 9.22362524,117.49032 9.6950481,118.469045 C9.49566164,117.982203 9.29548217,117.49606 9.09353244,117.010339 C11.8867466,121.649111 14.4420954,126.478071 16.0308572,131.797036 C17.6030151,137.062447 18.9533838,142.43429 20.4285441,147.737126 C23.1964552,157.686468 26.7671554,167.353423 29.274945,177.392394 C31.7185027,187.174891 32.3346264,196.791777 31.7430855,206.910447 C31.1282928,217.427128 30.7521671,228.105163 31.4693942,238.616173 C31.8119353,243.636277 33.445181,248.312408 34.5645863,253.145397 C35.6853553,257.98315 36.5680793,262.885406 37.8930562,267.663177 C38.1971986,267.040775 38.2359422,269.121567 38.2352941,269.27952 C38.2269706,270.473129 38.0600942,271.47403 37.6755914,272.605818 C36.6875547,275.51626 34.8391471,277.988833 32.0264326,278.791591 C26.943406,280.242081 22.2238887,275.624204 20.5847057,270.747918 C18.2331985,263.7512 16.9374223,256.019212 15.8167681,248.665332 C14.7893592,241.921891 14.5462369,235.138197 14.8514725,228.301893 C15.452744,214.820331 17.8955351,201.515268 18.5563279,188.037811 C19.2755177,173.364962 16.3647658,159.578626 13.9276824,145.295839 C12.7537989,138.413813 11.6319759,131.596723 9.34750646,125.040074 C8.42260206,122.385049 7.21671714,120.041989 5.95234438,117.590227 C5.232916,116.195322 3.7780166,113.707122 4.71883488,112.068302 Z" id="Thi-Succs!" fill="#1C9126" blush:i="0.0.2.0.0.3"/><path d="M45.9589599,89.1487894 C45.3759381,105.958297 44.3706201,122.640294 42.1267478,139.272671 C39.8366709,156.246039 37.2063632,173.161132 35.0028734,190.149501 C32.8579086,206.686101 30.6096239,223.49734 30.9093641,240.264728 C31.1301169,252.615395 29.0796188,273.508712 42.8137787,279.604423 C56.7236544,285.777448 59.7073832,259.415589 60.6207579,250.714271 C62.3710834,234.020158 61.8044206,217.150069 60.9549658,200.364794 C60.0828902,183.137558 58.6271061,165.998023 56.8228627,148.833677 C54.8188749,129.768208 53.246483,110.61677 51.9845049,91.4970662 C51.3601323,82.0399151 51.2063161,72.5983423 51.3785866,63.1388833 C51.541428,54.2125466 51.2018541,45.1938944 48.0242561,36.71875 C47.8577607,36.8393372 47.6923719,36.9599244 47.5258658,37.0799346" id="Thi-Succs!" fill="#43D26C" blush:i="0.0.2.0.0.4"/><path d="M112.768745,157.746737 C110.267183,161.386402 107.745506,164.990653 105.383103,168.846027 C101.156087,175.743845 97.3337069,183.415153 96.1838007,193.278148 C93.7774052,213.919286 95.7079752,236.212841 96.1739316,257.48581 C96.2692382,261.832965 95.7187527,266.048924 97.4342945,270.186005 C98.9897338,273.937549 101.897832,276.796482 104.669862,276.78125 C110.604123,276.747384 109.698719,262.233795 109.708498,255.845465 C109.726393,244.648785 108.469299,233.338616 108.577496,222.152399 C108.685525,211.070012 109.360324,199.957039 110.969117,189.431628 C112.597897,178.778241 114.98318,168.548221 118.13108,159.001544 C118.567918,157.676712 121.702855,147.439448 118.741025,149.203745" id="Thi-Succs!" fill="#1C9126" blush:i="0.0.2.0.0.5"/><path d="M91.5620515,32.3125 C87.6605166,32.3125 87.6844353,51.7381835 87.5670667,54.2333194 C87.1432044,63.23761 87.2427731,72.2443096 86.9746608,81.250407 C86.3878174,100.904345 85.6669179,120.730527 82.7110074,140.157415 C81.1195772,150.615545 79.2744972,161.027302 77.2897985,171.405935 C75.2995373,181.81468 72.6278703,192.210779 71.3184587,202.751418 C70.0613345,212.884331 70.7716653,223.21659 70.9441027,233.399491 C71.1165401,243.643821 71.4263711,253.908628 72.7702702,264.063223 C73.101795,266.569802 73.4906135,269.067347 73.9066882,271.558869 C74.2532317,273.634836 74.0513131,276.20947 74.6376002,278.182452 C75.5776621,281.342475 79.6071344,282.376544 82.3205201,281.882697 C89.662459,280.543887 94.3521997,271.336637 96.8603292,264.609467 C100.063215,256.019527 101.762557,246.702064 103.43965,237.649593 C105.339799,227.39382 106.45341,216.981461 106.975729,206.540194 C108.037609,185.319795 106.674798,164.076511 105.152899,142.924167 C104.306287,131.160351 103.3284,119.448329 101.832088,107.757386 C100.341896,96.11643 98.4300657,84.5272678 97.185179,72.8519833 C96.2807171,64.3674374 95.3896052,55.8714486 94.8038744,47.354381 C94.6636994,45.3235825 94.5457745,32.3125 91.5620515,32.3125" id="Thi-Succs!" fill="#28AA4D" blush:i="0.0.2.0.0.6"/><path d="M86.6776364,173.51622 C86.0416984,153.121146 77.8331307,63.5365209 75.9655598,38.8736005 C75.4985428,32.7004991 71.0022628,6.99806365 70.4189885,-1.83447008e-14 C68.8375897,1.97802731 68.9727265,32.766998 68.9901154,39.8415981 C69.008498,46.8396617 68.1395484,53.721666 67.6924045,60.6820888 C67.2368146,67.7842922 56.7239654,159.507545 55.3596798,166.331834 C52.6455165,179.908265 50.8291187,193.840403 49.4280679,207.721726 C48.0632855,221.251734 45.9413394,235.525776 47.7676737,249.126674 C48.1874921,252.257767 48.8517492,255.338671 49.9333405,258.215061 C51.1018765,261.322941 51.9027608,264.196821 52.8407693,267.448992 C54.3501283,272.687345 57.0806869,277.284549 61.2763868,279.447016 C69.8784412,283.88111 74.4974374,273.843547 76.8389808,265.104593 C80.578594,251.148616 82.9787629,236.964912 84.104075,222.308187 C85.3491223,206.092504 87.1868836,189.843571 86.6776364,173.51622" id="Thi-Succs!" fill="#1C9126" blush:i="0.0.2.0.0.7"/></g></g></g></g><g id="Group" opacity=".4" transform="translate(31.000000, 0.000000)" blush:i="0.1"><path d="M120.976556,241.45339 C135.041171,240.399519 150.747958,251.931922 157.532236,263.933084 C163.001336,273.609175 162.07999,286.315147 158.701939,296.595074 C156.439858,303.477336 151.502859,313.289843 143.269722,313.385467 C132.969126,313.505164 132.472411,300.565816 132.273201,293.00148 C132.008462,282.944898 130.758157,274.184257 122.961447,267.329412 C121.144312,265.732556 119.15811,264.327617 117.322626,262.752828 C114.448498,260.287999 111.272279,257.764325 110.902037,253.686591 C110.390906,248.060817 113.515357,247.048405 118.285911,248.093583 C119.099133,248.271457 127.290987,252.007485 126.078034,249.054505 C125.707792,248.152429 124.355261,247.437588 122.648216,246.901959 C118.230866,246.413808 112.962943,245.847419 111.447898,246.185782 C95.1035087,249.830197 88.7399305,272.840839 87.0499224,287.46063 C86.8606741,289.098006 86.7089987,290.740923 86.5769936,292.386349 L83.5789362,292.386757 C83.7884902,288.49773 84.0623592,284.615143 84.7019973,280.769616 C87.1108649,266.288246 94.6428357,245.0189 111.162189,242.668419 C111.771615,242.580819 114.013382,242.566108 116.728928,242.727933 C118.015929,241.997044 119.45758,241.555033 120.976556,241.45339 Z" id="Leaf-Me-Alone!" fill="#28AA4D" blush:i="0.1.0"/><path d="M43.5022584,131.556272 C44.3349978,140.010836 44.0771092,148.441091 45.3658478,156.883027 C46.3963952,163.629862 48.5758648,170.10655 51.5483896,176.25226 C54.406682,182.162021 60.3358531,187.192665 61.8779611,193.506093 C62.8608078,197.528874 62.3106443,203.187776 60.9552126,207.122703 C59.3068108,211.906963 60.1829186,211.528839 63.4674187,215.543217 C69.903539,223.410229 75.6989486,231.477586 79.7972,240.873448 C85.7004901,254.406827 89.5707604,270.225946 87.379798,285.039961 C87.1010157,286.921228 86.7705819,293.672069 84.1703414,294.143939 C84.4869619,281.147628 84.2479736,271.955407 83.4533765,266.567276 C78.8542057,235.383532 56.3987097,214.837857 41.7771124,188.371524 C40.9733172,187.006672 39.2764402,183.756682 38.0966049,181.612567 C36.2339193,178.227484 34.3613134,171.786268 31.839727,169.276251 C30.0010044,167.445407 29.5286944,167.748494 29.6940534,168.912879 C29.955782,170.755855 31.8150139,174.756573 32.3821036,175.868724 C33.552105,178.164342 34.8392344,180.604129 36.0381786,182.615657 C41.5240201,191.939764 47.6472651,202.117842 53.312993,211.729355 C28.8092443,217.291365 11.5521242,187.943808 4.97641598,168.649562 C-0.441435382,152.753237 -6.92369331,115.58742 18.3216825,114.227243 C29.0669787,113.671868 42.3558382,119.920289 43.5022584,131.556272 Z" id="Leaf-Me-Alone!" fill="#28AA4D" blush:i="0.1.1"/><path d="M154.247693,61.7898429 C141.223257,65.8533203 132.560822,76.3331406 128.109825,90.0302152 C125.198663,98.9878017 124.864988,108.189855 123.247232,117.39523 C120.813604,131.244812 115.577375,141.740281 105.344017,151.607311 C102.17444,154.663148 99.838717,157.800694 98.1783356,161.157464 C94.8822153,164.50892 92.0130122,168.301478 89.905067,172.938378 C87.2123585,178.860057 86.4504346,185.964877 89.559404,191.86862 C90.3952558,193.455662 92.4805564,196.641704 94.641783,198.08924 C86.5503372,215.260383 82.1013408,234.066399 82.6028519,252.848499 C82.9058898,264.186317 83.4613484,386.855899 84.1093833,398.179766 C84.2838799,401.220323 85.2775779,406.241195 86.770123,401.141934 C88.1361247,396.477798 86.4231279,277.828633 86.2646157,272.955903 C85.4933676,249.218697 84.8340103,227.635856 94.640451,205.458456 C95.6687819,203.134027 96.7590524,200.828199 97.8946121,198.540972 C97.9612139,198.502442 98.0231535,198.45594 98.0857591,198.410767 C98.1290503,198.443983 98.1683453,198.479856 98.2116364,198.512407 C98.2842323,198.38353 98.3834689,198.230074 98.499356,198.058682 C98.8250385,197.723868 99.1094279,197.300701 99.379831,196.828375 C100.24965,195.627299 101.234024,194.216299 101.239352,193.443704 C101.239352,193.437726 101.236022,193.428425 101.236022,193.422446 C107.30677,183.548109 114.259992,174.217843 121.362402,165.070263 C121.309121,165.136695 129.066226,154.61266 127.866729,160.4327 C127.288625,163.237426 121.582854,168.578497 119.278434,171.549301 C114.180736,178.158544 108.194572,186.532864 103.220088,194.63083 C102.55074,195.014139 101.604995,196.896135 100.920995,198.297834 C100.543363,199.007984 100.19104,199.724112 99.8447112,200.347902 C117.470862,206.150669 131.182163,194.462095 140.531716,180.866945 C140.543038,180.851001 140.553029,180.834393 140.563685,180.81845 C143.408911,177.061764 146.323404,173.331651 149.964521,170.362175 C156.039266,165.40707 162.544924,164.532835 169.707276,162.094145 C189.239569,155.444379 197.54414,130.221107 200.181569,111.505438 C203.157335,90.3909367 188.601524,58.0136859 163.188963,60.0956405 C160.008684,60.347069 157.028749,60.9221846 154.247693,61.7898429 Z" id="Leaf-Me-Alone!" fill="#1C9126" blush:i="0.1.2"/><path d="M127.217786,2.12857968 C108.495777,21.27849 99.4508196,47.8397449 92.2887827,72.8099704 C84.289697,100.699186 79.0061851,129.018694 78.8033431,158.014976 C78.67045,177.065643 78.1430837,196.235264 79.2745148,215.263815 C79.6758911,222.021798 80.3613812,228.791589 81.4512647,235.476924 C81.5410312,236.026277 83.9795013,250.953453 86.3126715,247.475098 C87.6396182,245.497021 83.8131843,231.99034 83.5239624,229.740716 C81.8975176,217.069954 81.5195807,204.305699 81.5989035,191.543308 C81.7293162,170.530478 81.0989058,149.625216 83.2659732,128.689643 C83.5890277,125.563841 83.8447073,122.280768 84.6001756,119.222884 C85.4022291,115.971917 84.3806594,117.391026 86.9934752,116.104037 C89.5322263,114.852818 92.6694443,115.031512 95.3035761,113.461914 C105.752103,107.235203 111.097041,91.2409654 115.256957,80.7465803 C120.015087,68.7456781 122.906831,55.9484792 125.216591,43.3192501 C126.912432,34.0402302 128.125058,24.8176493 128.811275,15.4191547 C129.027435,12.4570753 129.04031,9.35954525 129.632641,6.44701354 C129.79214,5.66137037 130.592832,4.27156881 130.563806,3.57581364 C130.502281,2.10331627 129.597896,1.23731064 129.523861,0 C128.740152,0.693160157 127.970702,1.40319682 127.217786,2.12857968" id="Leaf-Me-Alone!" fill="#43D26C" blush:i="0.1.3"/></g><g id="Character" transform="translate(11.000000, 134.000000)" blush:i="0.2"><g id="Head/Front" transform="translate(90.859375, 0.148352) scale(1.1015661764705882 1.1043942307692307)" blush:width="149.813" blush:height="114.857" blush:component="Head/Front" blush:i="0.2.0"><g id="Head/Front/Long" stroke="none" stroke-width="1" fill="none" fill-rule="evenodd" blush:i="0.2.0.0"><path d="M74.5,27 C85.2821207,27 94.2105014,34.9368049 95.7615049,45.2867779 C99.2080531,57.9860871 103.701616,86.5432912 99.1172687,91.0224659 L70.1172687,91.0224659 L70.1089864,90.8685463 C59.3601277,89.6792412 51,80.5659268 51,69.5 L51,48.5 C51,36.6258779 60.6258779,27 72.5,27 L74.5,27 Z" id="Hair-Back" fill="#4a312c" blush:color="Hair-500" blush:i="0.2.0.0.0"/><g id="Head" transform="translate(54.000000, 31.000000)" fill="#eac7a8" blush:color="Skin-500" blush:i="0.2.0.0.1"><path d="M38.1433414,9.13393292 C43.9381521,19.9350547 43.249578,47.3329958 35.7603014,49.2634576 C32.773664,50.0333035 26.4113241,48.1475566 19.935865,44.2446031 L24,73 L0,73 L8.26160177,34.4893378 C3.65406109,29.0807313 0.535660132,22.452516 1.05677633,15.0254539 C2.55833022,-6.37502057 32.3485306,-1.66718886 38.1433414,9.13393292 Z" id="SKIN" blush:i="0.2.0.0.1.0"/></g><path d="M73.0014183,28 C84.581449,28 88.2365853,33.3883223 91.3486809,37.9630857 C89.0214598,45.9483908 79.9899431,47.1322506 71.9650913,52.1099145 C71.0199697,51.3410485 69.8137784,50.8804131 68.5,50.8804131 C65.4624339,50.8804131 63,53.3428469 63,56.3804131 C63,59.4179792 65.4624339,61.8804131 68.5,61.8804131 C68.5838976,61.8804131 68.6673564,61.8785346 68.7503367,61.8748173 C69.8557449,73.7527524 69.4127451,87.3172545 66.1172687,90.5371269 L37.1172687,90.5371269 C35.5014749,62.4634848 51.1172687,73.3348557 51.1172687,46.9027926 C52.0907327,45.9516616 53.010584,45.010258 53.9207807,44.19836 L53.888877,43.4207004 C58.9105508,33.1402335 65.2813979,28 73.0014183,28 Z" id="Hair-Front" fill="#4a312c" blush:color="Hair-500" blush:i="0.2.0.0.2"/></g></g><g id="Bottom/Sitting" transform="translate(0.531250, 206.670330) scale(1.1015633333333332 1.104397489539749)" blush:width="330.469" blush:height="263.951" blush:component="Bottom/Sitting" blush:i="0.2.1"><g id="Bottom/Sitting/Baggy Pants" stroke="none" stroke-width="1" fill="none" fill-rule="evenodd" blush:i="0.2.1.0"><g id="Objects/Seat" transform="translate(10.000000, 42.000000) scale(1 1)" blush:width="232" blush:height="124" blush:component="Objects/Seat" blush:i="0.2.1.0.0"><g id="Objects/Seat/Cube" stroke="none" stroke-width="1" fill="none" fill-rule="evenodd" blush:i="0.2.1.0.0.0"><g id="Seat" transform="translate(55.000000, 0.000000)" blush:i="0.2.1.0.0.0.0"><polygon id="Seat-Stuff" fill="#C5CFD6" points="27.6226415 0 104.877193 0 115 124 0 124" blush:i="0.2.1.0.0.0.0.0"/><polygon id="Seat-Stuff" fill-opacity=".1" fill="#000" points="27.6226415 0 51.3828011 0 65.6037736 124 0 124" blush:i="0.2.1.0.0.0.0.1"/></g></g></g><path d="M299.158964,161 C279.443095,136.924175 266.102867,119.075435 259.13828,107.453779 C247.213216,87.5546842 237.453121,69.8481647 234.373078,63.0843539 C227.028322,46.9551796 251.281896,39.4026181 256.77103,46.9258 C265.079054,58.3124345 282.822044,94.1429674 310,154.417399 L299.158964,161 Z" id="SKIN" fill="#eac7a8" blush:color="Skin-500" blush:i="0.2.1.0.1"/><path d="M258.757567,154 L222.065197,61.6367769 C214.217429,44.7995771 252.115758,33.7320765 257.883274,41.5677718 C270.977322,59.3572261 302.098846,129.534043 306,134.834115 L258.757567,154 Z" id="LegLower" fill="#c7d1d9" blush:color="Bottom-700" blush:i="0.2.1.0.2"/><path d="M189.237285,155.164363 C188.230648,142.563747 186.360443,98.9430419 188.231659,78.7526333 C188.769372,72.9507196 189.335888,67.3411998 189.906801,62.0789726 C191.603754,46.4377715 220.605851,46.9321998 218.302721,61.7921247 C212.567016,98.799211 202.471523,150.6625 201.747941,155.14378 C200.733811,161.424485 189.869924,163.083457 189.237285,155.164363 Z" id="SKIN" fill="#eac7a8" transform="translate(202.932881, 105.497494) rotate(39.000000) translate(-202.932881, -105.497494)" blush:color="Skin-500" blush:i="0.2.1.0.3"/><g id="Left" transform="translate(184.316987, 147.977241) rotate(30.000000) translate(-184.316987, -147.977241) translate(155.316987, 137.477241)" fill="#E4E4E4" blush:i="0.2.1.0.4"><path d="M1.67813181,6.40192425 C0.559377268,9.38841089 4.54747351e-13,11.6229931 4.54747351e-13,13.1056708 C4.54747351e-13,14.908957 0.300414205,17.5404001 0.901242614,21 C2.99318117,21 21.7937852,21 57.3030548,21 C58.768738,16.1545073 57.9226607,13.5385816 54.7648228,13.1522232 C51.606985,12.7658647 48.9837155,12.4170139 46.8950143,12.1056708 L20.6799926,0.41888346 C20.1755635,0.194006431 19.584344,0.4206282 19.359467,0.925057349 C19.35562,0.933686736 19.3518954,0.94237021 19.3482945,0.951105154 L17.6632131,5.03869504 L17.6632131,5.03869504 C14.7398812,6.40265216 12.3643706,7.08463071 10.5366811,7.08463071 C9.05172687,7.08463071 7.00099246,6.48490544 4.38447792,5.28545491 L4.38448339,5.28544297 C3.38038273,4.82514778 2.19325534,5.26598921 1.73296014,6.27008987 C1.71312074,6.31336808 1.69483298,6.35734088 1.67813181,6.40192425 Z" id="shoe" blush:i="0.2.1.0.4.0"/></g><g id="Right" transform="translate(289.000000, 151.000000)" fill="#E4E4E4" blush:i="0.2.1.0.5"><path d="M1.67813181,6.40192425 C0.559377268,9.38841089 0,11.6229931 0,13.1056708 C0,14.908957 0.300414205,17.5404001 0.901242614,21 C2.99318117,21 21.7937852,21 57.3030548,21 C58.768738,16.1545073 57.9226607,13.5385816 54.7648228,13.1522232 C51.606985,12.7658647 48.9837155,12.4170139 46.8950143,12.1056708 L20.6799926,0.41888346 C20.1755635,0.194006431 19.584344,0.4206282 19.359467,0.925057349 C19.35562,0.933686736 19.3518954,0.94237021 19.3482945,0.951105155 L17.6632131,5.03869504 L17.6632131,5.03869504 C14.7398812,6.40265216 12.3643706,7.08463071 10.5366811,7.08463071 C9.05172687,7.08463071 7.00099246,6.48490544 4.38447792,5.28545491 L4.38448339,5.28544297 C3.38038273,4.82514778 2.19325534,5.26598921 1.73296014,6.27008987 C1.71312074,6.31336808 1.69483298,6.35734088 1.67813181,6.40192425 Z" id="shoe" blush:i="0.2.1.0.5.0"/></g><path d="M208.862091,66.2500522 C178.365272,61.2817352 157.938089,57.8844191 147.580542,56.0581041 C118.057451,50.8523866 109.448266,34.9653306 114.538476,0.302228659 L168.93427,0.302228659 C176.132679,2.38099361 206.210425,15.2374805 259.167508,38.8716893 C268.695532,43.6015333 266.921101,57.5474982 265.179547,62.1420768 C265.10852,62.3294612 249.046098,89.8530148 216.99228,144.712738 L172.494227,116.36549 L208.945659,69.5903876 C209.908306,67.6514874 209.88045,66.5380423 208.862091,66.2500522 Z" id="Leg-and-Butt" fill="#f2f2f2" blush:color="Bottom-500" blush:i="0.2.1.0.6"/></g></g><g id="Body" transform="translate(24.765625, 90.708791) scale(1.1015625 1.1043957219251337)" blush:width="282" blush:height="206.522" blush:component="Body" blush:i="0.2.2"><g id="Body/Jacket" stroke="none" stroke-width="1" fill="none" fill-rule="evenodd" blush:i="0.2.2.0"><path d="M68.3079281,93.0198914 L89.2053198,93.1020711 C76.3021447,134.755739 69.3363474,156.856914 68.3079281,159.405597 C65.9939846,165.140133 70.8906002,173.873732 72.9845874,178.567103 C66.1645409,181.61887 66.8912241,170.316929 58.2879189,174.319492 C50.4352209,177.972846 44.4616931,184.59248 35.3890352,178.994371 C34.2736052,178.306117 33.0512757,175.714714 36.0045784,173.68967 C43.3623323,168.644547 53.9653015,159.814672 55.3979297,156.908251 C57.3515741,152.944826 61.6549068,131.648706 68.3079281,93.0198914 L68.3079281,93.0198914 Z M194.04441,89.1225115 L222.372314,116.757535 C230.61469,120.273345 237.368143,124.155511 242.632673,128.40403 C243.816587,129.832102 245.10547,132.568362 239.535214,131.343925 C233.964957,130.119488 228.050816,129.082079 227.003896,130.893567 C225.956977,132.705055 229.041811,135.480899 227.106974,137.851671 C225.817082,139.432186 221.479076,134.404878 214.092956,122.769747 L184.635682,105.402467 L194.04441,89.1225115 Z" id="SKIN" fill="#eac7a8" blush:color="Skin-500" blush:i="0.2.2.0.0"/><path d="M122.01899,9.23199981 L130.503942,7.00082913 C148.576175,42.7520052 177.414525,74.1501034 217.01899,101.195124 L192.061793,137.56505 C151.33882,97.6857553 124.670571,55.1985909 122.01899,9.23199981 Z" id="Coat-Back" fill="#bf3b4f" transform="translate(169.518990, 72.282940) rotate(5.000000) translate(-169.518990, -72.282940)" blush:color="Top-700" blush:i="0.2.2.0.1"/><path d="M90,114 L167,114 C149.16087,70.6251468 140.241304,33.7787236 140.241304,3.4607303 L117.014208,0 C98.7598929,29.3584068 93.6048263,65.5045499 90,114 Z" id="Shirt" fill="#C7D1D9" blush:i="0.2.2.0.2"/><path d="M118.047752,-4.26325641e-14 C119.86198,0.0624731357 122.625282,0.175030894 126.337658,0.337673275 L126.337658,0.337673275 L131.950158,16.3768801 C132.543836,35.9324229 136.010826,75.3421183 142.351127,134.605966 L142.351127,134.605966 L91.8760675,134.60553 C92.008386,138.698782 92.2265651,142.830272 92.5306047,147 L92.5306047,147 L55,147 C60.6139164,83.6639633 81.1152373,34.6639633 116.503963,1.42108547e-14 L116.503963,1.42108547e-14 L116.522,0.017 L116.531583,-4.26325641e-14 Z" id="Coat-Front" fill="#ff7582" blush:color="Top-500" blush:i="0.2.2.0.3"/><path d="M106,135 L91.889057,134.999288 C91.2713571,116.643048 92.3783198,99.0548837 95.2099449,82.2347951 C96.6469231,107.748771 100.243477,125.3371 106,135 Z" id="Shade" fill-opacity=".1" fill="#000" blush:i="0.2.2.0.4"/><polygon id="Light" fill-opacity=".2" fill="#FFF" points="103.110899 104 128 92.4292718 128 104" blush:i="0.2.2.0.5"/></g></g></g><g id="Big-Leaf-Plant" transform="translate(0.000000, 354.000000)" blush:i="0.3"><mask id="mastercompositionplants-mask-8" fill="#fff" blush:i="0.3.0"><use xlink:href="#mastercompositionplants-path-7" blush:i="0.3.0.0"/></mask><g id="Mask" blush:i="0.3.1"/><g mask="url(#mastercompositionplants-mask-8)" id="Big-Ass-Leaf" blush:i="0.3.2"><g transform="translate(0.000000, -1.000000)" blush:i="0.3.2.0"><g transform="translate(21.000000, 0.000000)" blush:i="0.3.2.0.0"><path d="M23.4792248,1.09105859 C26.1420707,0.765560496 28.9841362,0.880459995 31.460505,1.93209575 C36.7262499,4.16858118 38.2230463,10.392735 38.1508367,15.4517337 C38.0729891,20.8968495 36.9172869,26.8442924 41.0548967,31.2315538 C42.9568736,33.2485633 45.3227851,34.7921631 47.1903989,36.8462086 C49.1859749,39.0412332 50.7517963,41.5527778 51.9111699,44.249778 C54.0399175,49.203656 55.084744,55.0293522 53.1381208,60.2260029 C51.4241532,64.8013489 47.1120024,68.9309907 48.0437536,74.1336018 C49.015652,79.5608943 54.4845895,83.7101049 57.903793,87.7525857 C61.7733652,92.3274078 65.3361904,98.1744497 65.9214822,104.173849 C66.4827186,109.923406 63.9813365,115.738256 60.1425177,120.084451 C52.4725479,128.768868 40.9433939,133.026257 29.318468,133 C24.382841,132.988438 18.7947091,132.765407 14.535396,130.111681 C13.2189935,129.291434 12.5245066,128.371191 11.7419423,127.091922 C11.0402894,125.94479 10.1134112,125.198629 9.0405684,124.386919 C6.68353633,122.604045 4.98134105,120.201162 3.89504277,117.511387 C-0.323288255,107.064092 3.04823952,94.1395063 8.95294816,84.8622269 C10.3521034,82.6642498 11.497614,80.5491369 10.8178987,77.9292774 C10.1085951,75.1944617 8.36528108,72.7278067 6.82333955,70.3770002 C5.29965626,68.0536702 3.56016888,65.8372449 2.3692676,63.3252157 C1.1219934,60.6936863 0.770770973,57.9380326 0.991150349,55.0580427 C1.40533829,49.6481696 3.7394414,44.6558945 7.0440234,40.3051619 C10.2269474,36.1144547 13.9642314,32.1045969 13.9726055,26.613508 C13.9818015,20.7937017 10.0931025,15.616625 11.7497457,9.6996799 C12.4357044,7.24958021 13.8134786,4.73576315 16.0338633,3.26689205 C18.1632537,1.85813664 20.9748498,1.39718568 23.4792248,1.09105859 Z" id="leaf" fill="#1C9126" blush:i="0.3.2.0.0.0"/><path d="M21.739247,10.3948623 C21.7891821,9.61324024 22.7158512,9.14445234 23.4453452,9.3484129 C24.4055603,9.61701348 24.3870936,10.5146931 24.3617427,11.3144554 C24.2840311,13.7727344 24.6396557,16.1617803 25.2302717,18.547008 C26.4578033,23.506162 28.726447,28.0752075 30.5237818,32.838868 C32.3195501,37.5985407 33.1625216,42.5127587 32.1090486,47.5491719 C31.1159378,52.2978072 29.5557303,56.9233634 28.5393772,61.6779926 C27.6435445,65.8685876 26.6903355,70.287805 28.0545743,74.467729 C29.3673075,78.4912097 32.2695799,81.7678946 34.3594677,85.4039445 C38.6857766,92.9307994 40.6051214,101.280945 40.8618424,109.873982 C40.980816,113.864258 40.8736773,117.891227 39.948469,121.804819 C39.41595,124.058276 38.7003341,127.103723 36.7702953,128.659515 C35.880305,129.376973 34.3581389,129.625059 33.6090774,128.562586 C32.9058177,127.56607 33.5227676,126.023364 33.7460284,124.961234 C34.7129095,120.363449 34.9074241,115.664694 34.675939,110.996123 C34.4518987,106.473999 33.9178916,101.959427 32.4954083,97.6406104 C31.175153,93.6326865 29.1694408,90.032792 26.8088387,86.5267105 C24.4034016,82.9537684 21.9027386,79.3732031 20.9088206,75.1396346 C19.8989706,70.8398312 20.7193724,66.4646432 21.8163621,62.2469569 C22.9764555,57.7858345 24.4959963,53.4526885 26.0669306,49.1124378 C27.5978601,44.8831871 28.1404995,40.8815639 27.2953623,36.4551617 C25.6258344,27.7100662 21.1569992,19.5018148 21.739247,10.3948623 Z" id="middle-thing" fill-opacity=".2" fill="#000" blush:i="0.3.2.0.0.1"/></g><g transform="translate(30.000000, 10.000000)" blush:i="0.3.2.0.1"><path d="M84.7745791,1.47619929 C88.0808328,2.48037434 91.3645639,4.10056734 93.7214125,6.64107655 C98.7328562,12.043553 97.195208,20.2087812 94.4286961,26.1725805 C91.4508871,32.5914875 86.9383645,39.0435413 89.4821591,46.4084708 C90.6513463,49.7943058 92.6174385,52.8607614 93.7265551,56.2725909 C94.9115354,59.9184752 95.4229946,63.7154661 95.3578319,67.5202505 C95.2371966,74.5084997 93.378859,81.9650561 88.3335143,87.113491 C83.89129,91.6463441 76.6276868,94.2939046 74.9665461,100.952255 C73.2335592,107.898108 77.4702824,115.675744 79.351385,122.256568 C81.4803274,129.704055 82.5739373,138.500621 80.0827329,145.923311 C77.6956486,153.037053 71.6697677,158.629211 64.8484121,161.780804 C51.2189513,168.078533 35.3944345,167.109528 21.7278304,161.008677 C15.9254899,158.418136 9.46741497,155.235902 5.86153181,149.863926 C4.74712081,148.20355 4.41760326,146.749261 4.1747355,144.823073 C3.95704756,143.095884 3.2617718,141.726774 2.42946492,140.203691 C0.60065002,136.85802 -0.12889483,133.118732 0.0184358338,129.360672 C0.591780025,114.764566 11.4102068,101.192431 23.2764997,93.2697165 C26.0881131,91.3927727 28.557307,89.481699 29.1460584,86.018864 C29.7609222,82.4042076 29.0167901,78.5677976 28.448234,74.9739585 C27.8866007,71.4222479 27.0143371,67.8846839 26.9443528,64.2828699 C26.8713684,60.5098592 27.9186788,57.0574425 29.7045732,53.7559678 C33.0595179,47.5544779 38.4525318,42.8508034 44.6475853,39.4148947 C50.6146459,36.1053049 57.1382357,33.2996973 60.0586543,26.789979 C63.1542774,19.8907316 61.3220524,11.718803 66.407933,5.56447804 C68.5138719,3.01606945 71.467735,0.753280649 74.8593333,0.170053779 C78.1119823,-0.389367232 81.6650869,0.531784598 84.7745791,1.47619929 Z" id="leaf" fill="#28AA4D" blush:i="0.3.2.0.1.0"/><path d="M78.0208812,12.8850122 C78.4899763,11.9827783 79.8233779,11.9133601 80.5721192,12.5393894 C81.5575996,13.3635735 81.0644704,14.4202277 80.6146908,15.3569428 C79.232423,18.2362932 78.3949184,21.2613516 77.8351172,24.4054886 C76.6707301,30.942276 76.9326893,37.5633112 76.539484,44.1676066 C76.1465354,50.7663407 74.5545724,57.047455 70.6734726,62.4761259 C67.014333,67.5946937 62.754502,72.2687396 59.064946,77.3822013 C55.8130199,81.8890357 52.3737054,86.6372724 51.7789602,92.3203129 C51.2059517,97.790418 52.8900522,103.20955 53.4323019,108.628232 C54.5549202,119.845306 52.4212291,130.774228 48.2093365,141.117081 C46.2532163,145.919779 44.0125441,150.647122 40.8716362,154.809448 C39.0633495,157.206241 36.6242934,160.447536 33.5428139,161.280415 C32.1218427,161.664526 30.2057012,161.158515 29.884896,159.502351 C29.5831854,157.948633 31.1172409,156.440566 31.9370094,155.296289 C35.4861491,150.34312 38.1821568,144.863714 40.3625174,139.196073 C42.4746985,133.706315 44.2192517,128.062473 44.8186095,122.183801 C45.3746224,116.728219 44.9121409,111.396766 43.9840221,105.99007 C43.0384171,100.480364 41.9850942,94.9115094 43.0424839,89.3595462 C44.1159685,83.7205208 47.3763457,78.9547258 50.878503,74.5215252 C54.5825484,69.8323379 58.6410937,65.4842586 62.7636666,61.1547744 C66.7810073,56.9361049 69.5193091,52.4679602 70.8525292,46.7651911 C73.4867407,35.4985155 72.5547779,23.3970251 78.0208812,12.8850122 Z" id="middle-thing" fill-opacity=".2" fill="#000" blush:i="0.3.2.0.1.1"/></g><g transform="translate(0.000000, 53.000000)" blush:i="0.3.2.0.2"><path d="M12.3555496,-1.45241649e-13 C17.8288184,-1.45241649e-13 22.6407368,2.90294977 25.9564401,7.02233207 C29.8377858,11.8446542 30.6216978,17.7336682 32.1977843,23.4810175 C32.9820406,26.3412323 34.3309063,29.1805843 36.694692,31.1238479 C38.8446834,32.8911242 41.574088,33.2447813 44.1475365,34.1082297 C49.2906465,35.8337805 53.4436244,39.9905138 55.0837459,45.0625159 C57.0846667,51.2493287 54.9653157,57.4886349 55.3302462,63.7585623 C55.6652248,69.5166794 61.3392054,73.1091092 65.9042792,75.8693847 C70.4056624,78.5912997 74.4608664,81.1392463 75.8166176,86.4417481 C77.254306,92.0656034 77.736634,98.3429336 75.7453529,103.89848 C72.4299938,113.148751 62.7273183,117.222034 53.3520475,117.853636 C44.8436587,118.426689 34.1453426,117.526899 27.7556163,111.347153 C23.9321087,107.649063 22.5474385,102.477122 22.7192313,97.331427 C22.8259562,94.1316879 23.4594205,90.9615604 24.2784484,87.8695 C24.8588945,85.6779025 25.6431508,83.4957268 25.8665846,81.2311097 C26.4604573,75.2061514 20.8952674,74.0489421 16.1580565,72.3947285 C10.1384248,70.2923023 5.92416614,66.3213147 2.99370544,60.7889863 C0.264645069,55.6379077 -0.880410413,49.8555629 0.755579861,44.1842617 C1.59113297,41.2883783 3.10662733,38.6610187 5.1619434,36.4263497 C6.06669559,35.4427723 7.34188666,34.6223954 8.15850471,33.5890166 C8.92072745,32.6239465 8.75478736,31.3735279 8.49210626,30.2432383 C7.27750742,25.0221685 3.49324709,20.6988697 2.13990581,15.4872219 C0.918077211,10.7830098 1.64036416,4.92831834 5.93862565,1.8934622 C7.79563986,0.582137835 10.0857508,0.0144693219 12.3555496,-1.45241649e-13 Z" id="leaf" fill="#43D26C" blush:i="0.3.2.0.2.0"/><path d="M19.8135705,13.6037988 C25.6146492,19.7868559 27.1914525,28.1759605 27.6542137,36.306975 C27.9134283,40.8664539 27.6436265,45.6756104 28.9823896,50.0981367 C30.1278516,53.8833453 32.8132326,56.7768478 35.5812618,59.5115256 C41.1531798,65.0165495 47.3671577,70.6130995 48.9968968,78.580242 C49.9531561,83.2558109 49.307681,88.085157 50.6290265,92.7092425 C51.830498,96.9123753 53.9458802,101.041816 56.5189007,104.591143 C58.5905682,107.449314 61.2896101,109.637527 63.554237,112.301878 C64.2451344,113.115182 65.2348628,114.312423 64.9496926,115.460537 C64.6160264,116.805163 62.9043222,117.230826 61.6898729,117.019509 C58.8583208,116.52722 56.4748445,113.821817 54.6234582,111.855016 C51.9162198,108.979011 49.6157331,105.885632 47.7459047,102.415717 C45.670139,98.5622001 43.9987343,94.4731383 43.2846135,90.1498775 C42.5435126,85.6647636 42.9123554,80.9905406 41.220118,76.6861234 C38.3725144,69.4434502 31.4655901,65.1693173 26.4718674,59.5243124 C20.2500345,52.4902647 21.1779476,43.7357289 21.8152261,35.0831503 C22.1652853,30.3281691 22.5132954,24.9584154 20.11206,20.6169839 C19.1954171,18.9597564 17.1517544,17.414581 16.757639,15.5308937 C16.3966511,13.8050216 18.3668868,12.0609789 19.8135705,13.6037988 Z" id="middle-thing" fill-opacity=".2" fill="#000" blush:i="0.3.2.0.2.1"/></g></g></g></g></g></svg>