<svg viewBox="23.02775349650352 25.559999999999945 255.944055944056 400.43999999999977" xmlns="http://www.w3.org/2000/svg" xmlns:xlink="http://www.w3.org/1999/xlink" xmlns:blush="http://design.blush" overflow="visible" width="255.944055944056px" height="400.43999999999977px"><g id="Master/Pose/Standing" stroke="none" stroke-width="1" fill="none" fill-rule="evenodd" blush:has-customizable-colors="true" blush:i="0"><g id="Head/Front" transform="translate(82.000000, 0.000000) scale(1 1)" blush:width="136" blush:height="104" blush:component="Head/Front" blush:i="0.0"><g id="Head/Front/Long" stroke="none" stroke-width="1" fill="none" fill-rule="evenodd" blush:i="0.0.0"><path d="M74.5,27 C85.2821207,27 94.2105014,34.9368049 95.7615049,45.2867779 C99.2080531,57.9860871 103.701616,86.5432912 99.1172687,91.0224659 L70.1172687,91.0224659 L70.1089864,90.8685463 C59.3601277,89.6792412 51,80.5659268 51,69.5 L51,48.5 C51,36.6258779 60.6258779,27 72.5,27 L74.5,27 Z" id="Hair-Back" fill="#4a312c" blush:color="Hair-500" blush:i="0.0.0.0"/><g id="Head" transform="translate(54.000000, 31.000000)" fill="#eac7a8" blush:color="Skin-500" blush:i="0.0.0.1"><path d="M38.1433414,9.13393292 C43.9381521,19.9350547 43.249578,47.3329958 35.7603014,49.2634576 C32.773664,50.0333035 26.4113241,48.1475566 19.935865,44.2446031 L24,73 L0,73 L8.26160177,34.4893378 C3.65406109,29.0807313 0.535660132,22.452516 1.05677633,15.0254539 C2.55833022,-6.37502057 32.3485306,-1.66718886 38.1433414,9.13393292 Z" id="SKIN" blush:i="0.0.0.1.0"/></g><path d="M73.0014183,28 C84.581449,28 88.2365853,33.3883223 91.3486809,37.9630857 C89.0214598,45.9483908 79.9899431,47.1322506 71.9650913,52.1099145 C71.0199697,51.3410485 69.8137784,50.8804131 68.5,50.8804131 C65.4624339,50.8804131 63,53.3428469 63,56.3804131 C63,59.4179792 65.4624339,61.8804131 68.5,61.8804131 C68.5838976,61.8804131 68.6673564,61.8785346 68.7503367,61.8748173 C69.8557449,73.7527524 69.4127451,87.3172545 66.1172687,90.5371269 L37.1172687,90.5371269 C35.5014749,62.4634848 51.1172687,73.3348557 51.1172687,46.9027926 C52.0907327,45.9516616 53.010584,45.010258 53.9207807,44.19836 L53.888877,43.4207004 C58.9105508,33.1402335 65.2813979,28 73.0014183,28 Z" id="Hair-Front" fill="#4a312c" blush:color="Hair-500" blush:i="0.0.0.2"/></g></g><g id="Bottom/Standing" transform="translate(0.000000, 187.000000) scale(1 1)" blush:width="300" blush:height="239" blush:component="Bottom/Standing" blush:i="0.1"><g id="Bottom/Standing/Skinny Jeans Walk" stroke="none" stroke-width="1" fill="none" fill-rule="evenodd" blush:i="0.1.0"><polygon id="Leg" fill="#c7d1d9" points="128 0 176.081639 127.226909 209.783329 221 229 221 182.673688 9.81437154e-14" blush:color="Bottom-700" blush:i="0.1.0.0"/><path d="M116.116628,0 C115.593979,43.6541888 115.971833,102.427468 114.754071,105.148648 C113.942229,106.962768 88.6908725,127.632305 39,167.157257 L48.9049803,184 C107.899481,145.955797 138.9048,124.399339 141.920937,119.330628 C146.445143,111.72756 169.1744,41.763137 181,0 L116.116628,0 Z" id="Leg" fill="#f2f2f2" blush:color="Bottom-500" blush:i="0.1.0.1"/><path d="M18.7225778,205.606482 L19.7225778,184.606482 L40.7225778,184.606482 C50.6801811,191.606482 63.6801811,197.273149 79.7225778,201.606482 L79.7225778,205.606482 L41.7225778,205.606482 L28.7225778,203.606482 L28.7225778,205.606482 L18.7225778,205.606482 Z" id="Shoe" fill="#191847" transform="translate(49.222578, 195.106482) rotate(50.000000) translate(-49.222578, -195.106482)" blush:i="0.1.0.2"/><path d="M208,239 L209,218 L230,218 C239.957603,225 252.957603,230.666667 269,235 L269,239 L231,239 L218,237 L218,239 L208,239 Z" id="Shoe" fill="#191847" blush:i="0.1.0.3"/></g></g><g id="Body" transform="translate(22.000000, 82.000000) scale(1 1)" blush:width="256" blush:height="187" blush:component="Body" blush:i="0.2"><defs blush:i="0.2.0"><path d="M8.50486985,11.3641526 C20.5328809,13.1391664 36.9471722,13.1391664 55.7504485,5 L60.0903301,21.0261575 C46.4526921,30.855406 28.3595972,37.8403661 13.9345776,35.1385465 C2.56686704,33.0093637 -1.08139191,18.2733952 8.50486985,11.3641526 Z" id="bodypointing-forward-path-1" blush:i="0.2.0.0"/><path d="M65.5437498,1.98951966e-13 C67.0746794,19.6687489 74.7801887,41.3453869 81.1040065,62.7603513 C94.0105334,65.9801967 115.654578,62.1842978 146.035933,51.3734208 C153.571674,66.9635189 157.055257,78.0780631 156.486685,84.7170535 C130.420927,98.3327976 108.0808,104.402393 89.6761367,104.801687 C90.2685109,115.717837 88.9396772,126.110233 84.4739328,135.605966 C75.2946804,155.124265 21.5450578,137.048144 3.47278757,140.605966 C-7.84459943,103.85132 14.0379108,88.9143806 14.0555178,65.3966157 C14.0747993,39.6421572 34.7544101,1.98951966e-13 37.7970006,1.98951966e-13 L37.7970006,1.98951966e-13 Z" id="bodypointing-forward-path-3" blush:i="0.2.0.1"/></defs><g id="Body/Pointing Forward" stroke="none" stroke-width="1" fill="none" fill-rule="evenodd" blush:i="0.2.1"><path d="M238.556381,46.4077826 C242.889175,45.5157805 253.464286,37.6506887 255.286431,39.2475996 C257.982176,41.6101262 255.578484,48.864452 252.746364,52.4730906 C247.453134,59.2176317 243.070569,61.5240612 232.238377,64.5443446 C226.574749,66.1235046 220.451364,69.288795 213.868224,74.0402157 L213,58.7398397 L228.246523,50.3642065 C230.385826,42.2239107 232.943102,38.1282526 235.918351,38.0772323 C238.203961,37.0137608 234.223587,47.2997848 238.556381,46.4077826 Z M212.314801,11.541507 C209.515281,16.510379 206.794075,21.8627914 208.22032,23.3935933 C209.646565,24.9243953 213.203036,22.7859324 214.904525,25.3293729 C216.038851,27.0249998 209.962902,29.703613 196.676679,33.3652124 L171.455792,56.4576422 L158.638039,42.7002327 L193.347821,23.6898218 C199.119845,16.8355222 204.806897,11.5121983 210.408976,7.71984988 C212.120791,7.00519513 215.114322,6.57263502 212.314801,11.541507 Z" id="SKIN" fill="#dcae92" blush:color="Skin-700" blush:i="0.2.1.0"/><g id="Group-3" transform="translate(134.353117, 23.386150)" blush:i="0.2.1.1"><mask id="bodypointing-forward-mask-2" fill="#fff" blush:i="0.2.1.1.0"><use xlink:href="#bodypointing-forward-path-1" blush:i="0.2.1.1.0.0"/></mask><use id="Mask" fill="#bf3b4f" transform="translate(31.545165, 20.361910) rotate(-9.000000) translate(-31.545165, -20.361910)" xlink:href="#bodypointing-forward-path-1" blush:color="Top-700" blush:i="0.2.1.1.1"/></g><g id="Group-27" transform="translate(77.000000, -0.000000)" blush:i="0.2.1.2"><mask id="bodypointing-forward-mask-4" fill="#fff" blush:i="0.2.1.2.0"><use xlink:href="#bodypointing-forward-path-3" blush:i="0.2.1.2.0.0"/></mask><use id="Mask" fill="#ff7582" xlink:href="#bodypointing-forward-path-3" blush:color="Top-500" blush:i="0.2.1.2.1"/></g></g></g></g></svg>